<mxfile host="app.diagrams.net" modified="2024-01-24T00:51:56.315Z" agent="Mozilla/5.0 (Macintosh; Intel Mac OS X 10_15_7) AppleWebKit/537.36 (KHTML, like Gecko) Chrome/120.0.0.0 Safari/537.36" version="23.0.0" etag="Vsy-EAl-qETbvXuWEBNS" type="github">
  <diagram name="Page-1" id="csNKROTMpLTAjLFFiV4P">
    <mxGraphModel>
      <root>
        <mxCell id="0" />
        <mxCell id="1" parent="0" />
      </root>
    </mxGraphModel>
  </diagram>
</mxfile>
